<svg width="22" height="21" viewBox="0 0 22 21" fill="none" xmlns="http://www.w3.org/2000/svg">
<path d="M9.4649 0.838202C10.2644 -0.119162 11.7356 -0.11916 12.5351 0.838204L15.3395 4.1963C15.5514 4.45006 15.8229 4.64732 16.1297 4.77045L20.1901 6.39987C21.3476 6.8644 21.8023 8.26359 21.1388 9.3198L18.8117 13.0246C18.6358 13.3046 18.5321 13.6238 18.5098 13.9536L18.2149 18.3188C18.1308 19.5632 16.9406 20.428 15.731 20.1234L11.4884 19.055C11.1678 18.9743 10.8322 18.9743 10.5116 19.055L6.26897 20.1234C5.05943 20.428 3.86921 19.5632 3.78512 18.3188L3.49017 13.9536C3.46789 13.6238 3.36418 13.3046 3.18833 13.0246L0.861184 9.3198C0.197737 8.26358 0.652363 6.8644 1.80993 6.39986L5.87028 4.77045C6.1771 4.64732 6.44861 4.45006 6.66052 4.19631L9.4649 0.838202Z" fill="#FCFCFC"/>
</svg>
