<svg width="22" height="21" viewBox="0 0 22 21" fill="none" xmlns="http://www.w3.org/2000/svg">
<path d="M12.1513 1.1587L14.9557 4.5168C15.2206 4.83399 15.56 5.08057 15.9435 5.23448L20.0039 6.8639C20.872 7.21229 21.213 8.26168 20.7154 9.05385L18.3883 12.7587C18.1685 13.1086 18.0388 13.5076 18.011 13.9199L17.716 18.2851C17.6529 19.2184 16.7603 19.867 15.8531 19.6385L11.6105 18.5701C11.2098 18.4692 10.7902 18.4692 10.3895 18.5701L6.14687 19.6385C5.23972 19.867 4.34705 19.2184 4.28399 18.285L3.98904 13.9199C3.96118 13.5076 3.83154 13.1086 3.61173 12.7587L1.28459 9.05384C0.787001 8.26168 1.12797 7.21229 1.99615 6.86389L6.05649 5.23448C6.44001 5.08057 6.7794 4.83399 7.04429 4.5168L9.84868 1.1587C10.4483 0.440674 11.5517 0.440675 12.1513 1.1587Z" stroke="#FCFCFC"/>
</svg>
